<?xml version="1.0" encoding="UTF-8"?>
<svg xmlns="http://www.w3.org/2000/svg" version="1.1" viewBox="0 0 800 800">
  <!-- Generator: Adobe Illustrator 29.2.1, SVG Export Plug-In . SVG Version: 2.1.0 Build 116)  -->
  <defs>
    <style>
      .st0 {
        fill: none;
      }

      .st1 {
        fill: #26231e;
      }
    </style>
  </defs>
  <g id="Layer_1">
    <g>
      <g>
        <path class="st1" d="M399.9,511.4c55.5,0,81.8,32.8,43.3,51.5-6,2.9-12.7,5-19.7,6.4,72.6,90.1,163.3,48.8,161.6-32.8-.2-11.7,9.1-21.4,20.8-21.6s21.4,9.1,21.6,20.8c2.4,116.8-129.2,179.2-227.6,71.3-98.4,108-230,45.3-227.6-71.3.2-11.7,9.9-21,21.6-20.8,11.7.2,21,9.9,20.8,21.6-1.6,81.7,89,122.9,161.7,32.7-21.4-4.3-38-14.2-38-27.7s7-16,18.2-21.4c11.1-5.4,26.4-8.7,43.3-8.7h0Z"/>
        <ellipse class="st1" cx="283" cy="424.3" rx="32" ry="54.8"/>
        <ellipse class="st1" cx="516.7" cy="424.3" rx="32" ry="54.8"/>
      </g>
      <g>
        <ellipse class="st1" cx="304.2" cy="304.5" rx="36" ry="36"/>
        <ellipse class="st1" cx="495.6" cy="304.5" rx="36" ry="36"/>
      </g>
    </g>
    <path class="st1" d="M405.9,755.7c-33.4,0-62-6.9-63.8-7.3-11.3-2.8-18.2-14.1-15.4-25.4,2.8-11.3,14.1-18.2,25.4-15.4.5.1,15,3.6,34.1,5.3,24.2,2.1,44.9.5,59.9-4.7,11-3.8,22.9,2,26.7,12.9s-2,22.9-12.9,26.7c-17.1,5.9-36.2,7.9-54,7.9Z"/>
  </g>
  <g id="Layer_2">
    <path class="st0" d="M639.8,719.6c36-42.7,87.2-110.7,101.7-141.5-10.3-18.2-27.3-55.6-21.7-96.7.7-5.2,2.1-13.4,3.9-24.7,8-48.2,24.7-148.6,27-239.9,1.2-49.7-2-89.4-9.6-118.1-7.4-28-18.4-44-32.5-47.7-15.5-4-27.7-2.1-38.4,6-17.2,13-31.5,42.9-40,84.1-7.1,34.3-7.9,64.5-8,64.7-.2,7.8-4.1,15-10.5,19.5-6.4,4.5-14.6,5.6-21.9,3.1-.7-.2-71.9-24-189.8-24.7-118,.7-189.1,24.5-189.8,24.7-7.4,2.5-15.6,1.4-21.9-3.1-6.4-4.5-10.3-11.7-10.5-19.5,0-.3-.8-30.5-8-64.7-8.6-41.2-22.8-71.1-40-84.1-10.7-8.1-22.9-10-38.4-6-14.1,3.7-25.1,19.7-32.5,47.7-7.6,28.7-10.9,68.5-9.6,118.1,2.3,91.2,19,191.6,27,239.9,1.9,11.3,3.2,19.5,3.9,24.7,5.5,41-11.4,78.4-21.7,96.7,14.6,30.8,65.7,98.8,101.7,141.5,11.8,14,18.3,37.2,20.5,73,.2,2.5.3,5,.4,7.4h438c.1-2.4.2-4.9.4-7.4,2.2-35.8,8.7-59,20.5-73Z"/>
    <path class="st1" d="M180.6,792.6c-2.2-35.8-8.7-59-20.5-73-36-42.7-87.2-110.7-101.7-141.5,10.3-18.2,27.3-55.6,21.7-96.7-.7-5.2-2.1-13.4-3.9-24.7-8-48.2-24.7-148.6-27-239.9-1.2-49.7,2-89.4,9.6-118.1,7.4-28,18.4-44,32.5-47.7,15.5-4,27.7-2.1,38.4,6,17.2,13,31.5,42.9,40,84.1,7.1,34.3,7.9,64.5,8,64.7.2,7.8,4.1,15,10.5,19.5,6.4,4.5,14.6,5.6,21.9,3.1.7-.2,71.9-24,189.8-24.7,118,.7,189.1,24.5,189.8,24.7,7.4,2.5,15.6,1.4,21.9-3.1,6.4-4.5,10.3-11.7,10.5-19.5,0-.3.8-30.5,8-64.7,8.6-41.2,22.8-71.1,40-84.1,10.7-8.1,22.9-10,38.4-6,14.1,3.7,25.1,19.7,32.5,47.7,7.6,28.7,10.9,68.5,9.6,118.1-2.3,91.2-19,191.6-27,239.9-1.9,11.3-3.2,19.5-3.9,24.7-5.5,41,11.4,78.4,21.7,96.7-14.6,30.8-65.7,98.8-101.7,141.5-11.8,14-18.3,37.2-20.5,73-.2,2.5-.3,5-.4,7.4h49c0-1.6.2-3.2.3-4.8,2.2-35.6,9-43.9,9-44,11-13.1,35.9-43.8,59.7-76.1,43.1-58.6,52.2-81.4,55.4-93.5,1.8-7.1.5-14.6-3.8-20.5-.2-.3-25.2-36.2-20.2-73.1.6-4.4,2-12.7,3.7-23.2,8.2-49.3,25.3-152,27.6-246.7,1.3-54.3-2.4-98.7-11.3-131.9-12.3-46.3-35-74.1-67.5-82.6-29.8-7.8-57.6-2.8-80.2,14.3-27.6,20.9-47.3,59.2-58.6,114-3.2,15.4-5.2,29.9-6.5,41.8-32.9-7.7-91.5-18.2-170.5-19h0c-1.7,0-3.4,0-5,0-1.7,0-3.3,0-5,0h0c-79,.9-137.6,11.3-170.5,19.1-1.3-11.9-3.3-26.4-6.5-41.8-11.3-54.8-31-93.2-58.6-114C136.6.8,108.9-4.2,79.1,3.6,46.6,12,23.8,39.8,11.5,86.1,2.7,119.4-1.1,163.7.3,218c2.3,94.7,19.4,197.4,27.6,246.7,1.7,10.5,3.1,18.8,3.7,23.2,5,36.9-20,72.9-20.2,73.1-4.3,5.9-5.6,13.4-3.8,20.5,3.2,12.1,12.3,34.9,55.4,93.5,23.7,32.3,48.7,63,59.7,76.1,0,0,6.8,8.4,9,44,.1,1.6.2,3.3.3,4.8h49c-.1-2.4-.2-4.9-.4-7.4Z"/>
  </g>
</svg>