<?xml version="1.0" encoding="UTF-8"?>
<svg id="Layer_1" xmlns="http://www.w3.org/2000/svg" version="1.1" viewBox="0 0 800 680">
  <!-- Generator: Adobe Illustrator 29.2.1, SVG Export Plug-In . SVG Version: 2.1.0 Build 116)  -->
  <defs>
    <style>
      .st0 {
        fill: #26231e;
      }
    </style>
  </defs>
  <g>
    <path class="st0" d="M400,475.2c55.5,0,81.8,32.8,43.3,51.5-6,2.9-12.7,5-19.7,6.4,72.6,90.1,163.3,48.8,161.6-32.8-.2-11.7,9.1-21.4,20.8-21.6s21.4,9.1,21.6,20.8c2.4,116.8-129.2,179.2-227.6,71.3-98.4,108-230,45.3-227.6-71.3.2-11.7,9.9-21,21.6-20.8,11.7.2,21,9.9,20.8,21.6-1.6,81.7,89,122.9,161.7,32.7-21.4-4.3-38-14.2-38-27.7s7-16,18.2-21.4c11.1-5.4,26.4-8.7,43.3-8.7h0Z"/>
    <ellipse class="st0" cx="283.1" cy="388.1" rx="32" ry="54.8"/>
    <ellipse class="st0" cx="516.9" cy="388.1" rx="32" ry="54.8"/>
  </g>
  <path class="st0" d="M798.7,162.9c-2.4-35.5-8-65.9-16.8-90.4-10.5-29-25.7-50.8-45.3-64.7-.2-.2-.5-.3-.8-.5-2.4-1.5-23.8-14.5-51.4-1.9-19.5,8.9-36.4,28.4-50.3,57.9-13.7,29.1-24.9,69-33.4,118.7-34.1-13.8-99.6-32.8-200.8-32.8h0c-101.2,0-166.7,19.1-200.8,32.8-8.5-49.8-19.7-89.6-33.4-118.7-13.9-29.6-30.8-49-50.3-57.9-27.6-12.6-49,.4-51.4,1.9-.3.2-.5.3-.8.5-19.6,13.9-34.9,35.7-45.3,64.7C9.3,97,3.7,127.4,1.3,162.9c-3.9,58,.8,131.3,13.9,217.9,22.1,146.1,61.3,282.4,61.7,283.7,2.7,9.4,11.3,15.5,20.6,15.5s4-.3,6-.8c11.4-3.3,17.9-15.2,14.7-26.5-.4-1.3-38.8-135.2-60.5-278.6-12.6-83.4-17.1-153.5-13.5-208.4,2.1-31.5,7-57.9,14.4-78.6,7.2-20,16.9-34.6,28.7-43.5,1.5-.6,5.7-1.7,11.6,1.3,5.7,2.9,17,11.9,29.2,38.8,13.9,30.6,25.1,75.4,33.2,133.2,1,7.3,5.6,13.6,12.3,16.6s14.3,2.5,20.5-1.5c1-.6,17.1-10.3,49.4-19.9,30.8-9.1,82.9-20,156.6-20s125.8,10.9,156.6,20c32.3,9.6,48.4,19.2,49.4,19.9,6.1,4,13.8,4.6,20.5,1.5,6.7-3,11.3-9.3,12.3-16.6,8.1-57.7,19.3-102.6,33.2-133.2,12.2-26.9,23.6-35.9,29.2-38.8,5.9-3,10.1-1.9,11.6-1.3,11.8,8.8,21.5,23.4,28.7,43.5,7.5,20.7,12.3,47.1,14.4,78.6,3.7,54.9-.8,125-13.5,208.4-21.7,143.4-60.1,277.3-60.5,278.7-3.3,11.4,3.3,23.2,14.6,26.5,2,.6,4,.8,6,.8,9.3,0,17.9-6.1,20.6-15.5.4-1.4,39.5-137.6,61.7-283.7,13.1-86.5,17.8-159.8,13.9-217.9h-.1Z"/>
  <g>
    <circle class="st0" cx="304.3" cy="268.3" r="36"/>
    <circle class="st0" cx="495.7" cy="268.3" r="36"/>
  </g>
</svg>